<?xml version="1.0" encoding="UTF-8"?> <svg xmlns="http://www.w3.org/2000/svg" id="f98051c6-c703-4ca8-992f-8dae077bc8eb" data-name="Layer 1" viewBox="0 0 957.65 527.86"><defs><style>.a6db511b-e091-44cc-9c62-83f2bd25fb7b{fill:#008bd2;}.a3d5a1fd-86af-4b5f-8e9d-3634a7be19b1{fill:#005ca9;}.a094edbf-93af-4ea3-8159-ea7cfc5ef008{fill:#164194;}.ac4968e0-51c2-493a-8483-ee524a5d8e54{fill:#009fe3;}.b24682bc-bb30-4e10-a23b-4bd1a25b970f{fill:#0075bf;}.bc667cef-37fb-417b-9b61-93f32247c7da{fill:#ee7d00;}.f2fc1666-7a14-4387-ac9a-2527c13a1f94{fill:#009bb4;}</style></defs><polygon class="a6db511b-e091-44cc-9c62-83f2bd25fb7b" points="117.12 248.7 85.46 29.06 42.28 35.29 73.03 248.7 117.12 248.7"></polygon><polygon class="a3d5a1fd-86af-4b5f-8e9d-3634a7be19b1" points="161.11 248.7 192.02 35.3 148.85 29.05 117.02 248.7 161.11 248.7"></polygon><path class="a094edbf-93af-4ea3-8159-ea7cfc5ef008" d="M184.21,248.7c7-25.44,20.73-74.11,28-93.77C217,141.7,236.4,101,243.45,86.43l-39.27-19c-2.69,5.56-26.47,54.81-33,72.46-9.28,25.23-27.28,90.57-32.26,108.82Z"></path><polygon class="ac4968e0-51c2-493a-8483-ee524a5d8e54" points="0 157 0 157 36.73 248.7 83.72 248.7 40.5 140.77 0 157"></polygon><rect class="b24682bc-bb30-4e10-a23b-4bd1a25b970f" x="95.33" width="43.63" height="248.7"></rect><polygon class="a3d5a1fd-86af-4b5f-8e9d-3634a7be19b1" points="95.33 248.7 117.12 248.7 95.33 97.58 95.33 248.7"></polygon><polygon class="a094edbf-93af-4ea3-8159-ea7cfc5ef008" points="117.02 248.7 138.97 248.7 138.97 97.25 117.02 248.7"></polygon><polygon class="b24682bc-bb30-4e10-a23b-4bd1a25b970f" points="73.03 248.7 83.72 248.7 67.03 207.01 73.03 248.7"></polygon><path fill="#FFFFFF" d="M514.6,153.35H454.43v95.12H516V238.21H466.35V203.4h38.27v-9.56H466.35V163.61H514.6Zm-129.86,0H372.82v95.12h11.92v-45.2h44.09v45.2h11.93V153.35H428.83v39.52H384.74Zm-88.3,67.11-10.67,2.36c6.38,18.44,19.13,27,38.54,27,8.6,0,17.89-1.67,24.82-6.94a26.64,26.64,0,0,0,10.68-21.63,23.48,23.48,0,0,0-8.88-18.86c-4.85-4.15-11.09-6-17.33-7.35l-14.28-3.46c-8.87-2.08-17.19-4.44-17.19-15.11,0-10.4,11.37-15.11,20.38-15.11,10.12,0,21.21,6.37,23.29,16.77l10.82-2.91C351.49,159.87,338.73,152,322.79,152c-16.5,0-32.31,7.9-32.31,26.2a23.63,23.63,0,0,0,7.76,17.61c5,4.57,10.82,6.1,17.2,7.62l15.81,3.89c8.31,2.08,16.22,6,16.22,15.53a15.87,15.87,0,0,1-5.83,12.2c-4.43,3.47-11.37,4.71-17.05,4.71-13.31,0-24.26-6.1-28.15-19.27m60.41-98.6c7.91-7.76,7.77-18.58,7.77-29V35.34H345.49V92.89c0,5,.41,11.64-2.64,15.94-2.77,3.74-9.29,5.13-13.73,5.13-5.4,0-11.37-1.39-14.28-6.38-2.22-3.88-2.08-10.26-2.08-14.69V35.34H288.64V92.89c0,11.64.41,22.59,9.84,30.77,7.63,6.66,19.14,8.18,29.12,8.18,10.4,0,21.63-2.35,29.25-10m62-67.67h23.84V35.34H372.51V54.19h24.12v76.27h22.19Zm51.95,29.68c0-11.51,1.52-32,17.19-32,12.2,0,15.81,9.85,16,20.38L527.2,70.7C524.7,47.82,512.5,34,488.66,34,460.09,34,446,56.56,446,82.9c0,25.93,13.73,48.94,42,48.94,21.91,0,36.88-12.89,39.24-34.66L505.57,95.8c-1.25,9.14-6.1,17.88-16.5,17.88-16.78,0-18.3-16.78-18.3-29.81m70.1,79.74h46.31V153.35H528.94v95.12h11.93V203.4h38.4v-9.56h-38.4Zm68.93,0h46.31V153.35H597.88v95.12H609.8V203.4h38.41v-9.56H609.8Zm57,84.86h11.92V153.35H666.81Zm27.7,0h61.56V238.21H706.43V203.4H744.7v-9.56H706.43V163.61h48.26V153.35H694.51Zm73.37,0H824V237.93H779.81V153.35H767.88Zm129-47.84c0,8.6-2.21,18.45-6.93,25.65-6.24,9.57-15,12.07-25.93,12.07H846.58v-75h17.47c10,0,17.61,1.52,24.13,9.7,6.24,7.77,8.73,17.89,8.73,27.59m12.07,0c0-12.34-3.33-24.26-11.51-33.83-9-10.67-19.14-13.45-32.72-13.45H834.66v95.12h34c13,0,22.87-4.44,30.5-15.12,6.8-9.56,9.85-21.07,9.85-32.72"></path><path class="bc667cef-37fb-417b-9b61-93f32247c7da" d="M83.06,414.09q-13.55,0-22.74-4.24a40.7,40.7,0,0,1-14.76-11.09,42.81,42.81,0,0,1-8-15.52,63.62,63.62,0,0,1-2.47-17.54,64.39,64.39,0,0,1,2.47-17.62,42.84,42.84,0,0,1,8-15.58,40.81,40.81,0,0,1,14.76-11.09q9.18-4.23,22.74-4.24,13.31,0,22.49,4.24a40.64,40.64,0,0,1,14.76,11.09,42.86,42.86,0,0,1,8.05,15.58,64.39,64.39,0,0,1,2.47,17.62,63.62,63.62,0,0,1-2.47,17.54,42.84,42.84,0,0,1-8.05,15.52,40.53,40.53,0,0,1-14.76,11.09Q96.37,414.1,83.06,414.09Zm0-24.45a13.15,13.15,0,0,0,11.41-6.08q4.19-6.09,4.18-17.86t-4.18-18a13.15,13.15,0,0,0-11.41-6.08,13.37,13.37,0,0,0-11.65,6.08q-4.18,6.09-4.18,18t4.18,17.86A13.37,13.37,0,0,0,83.06,389.64Z"></path><path class="bc667cef-37fb-417b-9b61-93f32247c7da" d="M137.93,389V342.26H132.1q-.25-2.92-.38-5.71c-.09-1.85-.13-3.75-.13-5.7s0-3.84.13-5.7.21-3.75.38-5.7h42.06c.17,1.95.3,3.84.38,5.7s.13,3.76.13,5.7,0,3.85-.13,5.7-.21,3.76-.38,5.71h-7.22v46.37H182.4v-14.7c2.11-.17,4.22-.29,6.33-.38s4.26-.13,6.46-.13,4.33.05,6.4.13,4.2.21,6.4.38v37.88H132.1q-.25-2.91-.38-5.7c-.09-1.85-.13-3.76-.13-5.7s0-3.84.13-5.7.21-3.76.38-5.7Z"></path><path class="bc667cef-37fb-417b-9b61-93f32247c7da" d="M220.79,389v-12.8l-25-33.95h-6.34q-.26-2.92-.38-5.71c-.08-1.85-.13-3.75-.13-5.7s.05-3.84.13-5.7.21-3.75.38-5.7h43.33c.17,1.86.29,3.7.38,5.51s.13,3.66.13,5.51-.05,3.68-.13,5.45-.21,3.59-.38,5.45h-4.43l8.48,15.33L246,341.37h-4.31c-.17-1.86-.3-3.67-.38-5.45s-.13-3.59-.13-5.45,0-3.69.13-5.51.21-3.65.38-5.51h41.18c.16,1.95.29,3.84.37,5.7s.13,3.76.13,5.7,0,3.85-.13,5.7-.21,3.76-.37,5.71h-6.34l-25,33.95V389h7.35c.17,1.94.29,3.84.38,5.7s.13,3.76.13,5.7-.05,3.85-.13,5.7-.21,3.76-.38,5.7H213.43c-.16-1.94-.29-3.84-.37-5.7s-.13-3.76-.13-5.7,0-3.84.13-5.7.21-3.76.37-5.7Z"></path><path class="bc667cef-37fb-417b-9b61-93f32247c7da" d="M295.28,389V342.26h-5.83c-.17-1.95-.29-3.85-.38-5.71s-.12-3.75-.12-5.7,0-3.84.12-5.7.21-3.75.38-5.7h40l15.84,51.19,16-51.19h40c.16,1.95.29,3.84.38,5.7s.12,3.76.12,5.7,0,3.85-.12,5.7-.22,3.76-.38,5.71H395.5V389h5.83q.24,2.91.38,5.7t.12,5.7c0,1.94,0,3.85-.12,5.7s-.22,3.76-.38,5.7H367.12V362.66l-12.67,47.25H335.19l-12.67-47.25v49.15H289.45c-.17-1.94-.29-3.84-.38-5.7s-.12-3.76-.12-5.7,0-3.84.12-5.7.21-3.76.38-5.7Z"></path><path class="bc667cef-37fb-417b-9b61-93f32247c7da" d="M413.74,389V342.26h-5.83c-.17-1.95-.29-3.85-.38-5.71s-.12-3.75-.12-5.7,0-3.84.12-5.7.21-3.75.38-5.7h48.53a36.7,36.7,0,0,1,13.43,2.28,28.26,28.26,0,0,1,9.82,6.27,26.19,26.19,0,0,1,6,9.32,31.91,31.91,0,0,1,2,11.53,37.48,37.48,0,0,1-1.58,10.57,26.22,26.22,0,0,1-5.26,9.7,27.45,27.45,0,0,1-9.63,7q-6,2.72-14.82,2.72H442.25V389h11.91c.17,1.94.29,3.84.38,5.7s.12,3.76.12,5.7,0,3.85-.12,5.7-.21,3.76-.38,5.7H407.91c-.17-1.94-.29-3.84-.38-5.7s-.12-3.76-.12-5.7,0-3.84.12-5.7.21-3.76.38-5.7Zm38.39-32.44a6,6,0,0,0,4.69-2,7.76,7.76,0,0,0,1.77-5.39,7.93,7.93,0,0,0-1.77-5.19,5.78,5.78,0,0,0-4.69-2.15h-9.88v14.69Z"></path><path class="bc667cef-37fb-417b-9b61-93f32247c7da" d="M496.6,389V342.26h-5.83c-.17-1.95-.29-3.85-.38-5.71s-.13-3.75-.13-5.7.05-3.84.13-5.7.21-3.75.38-5.7h42.45c.16,1.95.29,3.84.38,5.7s.12,3.76.12,5.7,0,3.85-.12,5.7-.22,3.76-.38,5.71h-5.83V389h5.83q.24,2.91.38,5.7t.12,5.7c0,1.94,0,3.85-.12,5.7s-.22,3.76-.38,5.7H490.77c-.17-1.94-.29-3.84-.38-5.7s-.13-3.76-.13-5.7.05-3.84.13-5.7.21-3.76.38-5.7Z"></path><path class="bc667cef-37fb-417b-9b61-93f32247c7da" d="M589.22,352.65q0-5.32-2.28-8.18t-6.85-2.85q-13.43,0-13.43,22.3a34.87,34.87,0,0,0,1.4,10.64,16.32,16.32,0,0,0,4.18,7A16.51,16.51,0,0,0,579,385.4a31.92,31.92,0,0,0,9.18,1.2,43.45,43.45,0,0,0,10-1.08,44.86,44.86,0,0,0,8.11-2.66,40,40,0,0,0,6.08-3.29q2.54-1.71,3.93-2.85V407l-3.8,1.84a43,43,0,0,1-6.59,2.34,84.63,84.63,0,0,1-9.75,2,88,88,0,0,1-13.31.88q-23.82,0-36.11-12.67t-12.29-35.6a63.62,63.62,0,0,1,3-20,46.11,46.11,0,0,1,8.36-15.39,36.36,36.36,0,0,1,12.93-9.82,39.81,39.81,0,0,1,16.66-3.42q7.59,0,11.78,1.71a44.09,44.09,0,0,1,6.59,3.23v-2.66c1.94-.17,3.86-.29,5.76-.38s3.82-.13,5.77-.13,3.88.05,5.82.13,3.89.21,5.83.38v43.33c-2.36.17-4.71.3-7,.38s-4.62.13-6.9.13-4.69,0-7-.13-4.56-.21-6.84-.38Z"></path><path class="f2fc1666-7a14-4387-ac9a-2527c13a1f94" d="M41.76,502.77V456H35.93c-.17-1.94-.29-3.84-.38-5.7s-.12-3.76-.12-5.7,0-3.84.12-5.7.21-3.76.38-5.7H78c.17,1.94.29,3.84.38,5.7s.12,3.76.12,5.7,0,3.85-.12,5.7-.21,3.76-.38,5.7H70.78V502.4H86.23V487.7c2.11-.17,4.23-.3,6.34-.38s4.26-.13,6.46-.13,4.33.05,6.4.13,4.2.21,6.39.38v37.88H35.93c-.17-1.94-.29-3.84-.38-5.7s-.12-3.76-.12-5.7,0-3.85.12-5.7.21-3.76.38-5.71Z"></path><path class="f2fc1666-7a14-4387-ac9a-2527c13a1f94" d="M123.73,502.77V456h-5.82q-.25-2.91-.38-5.7c-.09-1.85-.13-3.76-.13-5.7s0-3.84.13-5.7.21-3.76.38-5.7H197.6v28.25q-3.42.25-6.85.38t-6.84.13q-3.42,0-6.84-.13t-6.84-.38v-5.32H154.52v10.52h30.15q.26,3,.38,6.08c.09,2,.13,4,.13,5.95s0,4-.13,6-.21,3.95-.38,5.89H154.52v11.28h16.35v-5.83q6.07-.37,12.41-.38c2.53,0,5.05,0,7.54.13s5,.21,7.54.38v29.39H117.91q-.25-2.91-.38-5.7c-.09-1.86-.13-3.76-.13-5.7s0-3.85.13-5.7.21-3.76.38-5.71Z"></path><path class="f2fc1666-7a14-4387-ac9a-2527c13a1f94" d="M256.13,495.55h-5.19c-.17-1.94-.3-3.8-.38-5.57s-.13-3.59-.13-5.45,0-3.69.13-5.51.21-3.7.38-5.64h40.29c.17,1.94.29,3.82.38,5.64s.12,3.66.12,5.51,0,3.68-.12,5.45-.21,3.63-.38,5.57h-4.31v23.82c-.68.34-2.09,1-4.25,1.9a70.75,70.75,0,0,1-8.29,2.85,107.21,107.21,0,0,1-11.79,2.6,87.89,87.89,0,0,1-14.69,1.14q-12.68,0-21.73-3.67a39.16,39.16,0,0,1-23.63-25.47,63.86,63.86,0,0,1-2.79-19.26,61.3,61.3,0,0,1,3-19.76,43.83,43.83,0,0,1,8.68-15.33A39.73,39.73,0,0,1,225,434.48a43.12,43.12,0,0,1,17.8-3.54,44.68,44.68,0,0,1,10.89,1.39,30.45,30.45,0,0,1,9.13,3.68v-2.79q5.82-.39,11.78-.38c3.55,0,7.09.12,10.64.38v35.35c-2.36.17-4.71.29-7,.38s-4.62.13-6.91.13-4.68-.05-7-.13-4.57-.21-6.85-.38v-4.82a8.24,8.24,0,0,0-2.66-6.21c-1.77-1.68-4.26-2.53-7.47-2.53a12,12,0,0,0-6.59,1.84,15.13,15.13,0,0,0-4.88,5.07,25.51,25.51,0,0,0-3,7.66,43.59,43.59,0,0,0-1,9.76,38.63,38.63,0,0,0,1.46,11.46,20.73,20.73,0,0,0,3.93,7.48,14,14,0,0,0,5.57,4.05,17.39,17.39,0,0,0,6.4,1.2,37.44,37.44,0,0,0,4.5-.25,13.71,13.71,0,0,0,2.34-.38Z"></path><path class="f2fc1666-7a14-4387-ac9a-2527c13a1f94" d="M299.72,502.77l23.56-69.55h39.4l22.55,69.55h6.34c.17,2,.29,3.85.38,5.71s.13,3.76.13,5.7-.05,3.84-.13,5.7-.21,3.76-.38,5.7H347.48c-.17-1.69-.3-3.4-.38-5.13S347,517,347,515.32s0-3.36.13-5,.21-3.31.38-5h5.19l-1.52-6.84H332.4l-1.52,6.84h5.2c.17,1.69.29,3.36.38,5s.12,3.32.12,5,0,3.4-.12,5.13-.21,3.44-.38,5.13H292.87c-.17-1.94-.29-3.84-.38-5.7s-.13-3.76-.13-5.7.05-3.85.13-5.7.21-3.76.38-5.71Zm48-24.45-5.57-21.92-6,21.92Z"></path><path class="f2fc1666-7a14-4387-ac9a-2527c13a1f94" d="M445,466.41c0-3.54-.76-6.27-2.28-8.17s-3.8-2.85-6.85-2.85q-13.43,0-13.42,22.3a34.9,34.9,0,0,0,1.39,10.64,16.38,16.38,0,0,0,4.18,7,16.6,16.6,0,0,0,6.78,3.86,31.56,31.56,0,0,0,9.18,1.21,43.45,43.45,0,0,0,10-1.08,44.86,44.86,0,0,0,8.11-2.66,40,40,0,0,0,6.08-3.29q2.53-1.71,3.93-2.85v30.28c-.85.42-2.11,1-3.8,1.83a41.88,41.88,0,0,1-6.59,2.35,84.37,84.37,0,0,1-9.75,2,86.6,86.6,0,0,1-13.31.89q-23.82,0-36.11-12.67t-12.29-35.6a63.62,63.62,0,0,1,3-20,46.19,46.19,0,0,1,8.36-15.39,36.24,36.24,0,0,1,12.93-9.82,39.81,39.81,0,0,1,16.66-3.42q7.59,0,11.78,1.71a44.09,44.09,0,0,1,6.59,3.23v-2.66q2.91-.25,5.76-.38c1.9-.08,3.82-.13,5.77-.13s3.88.05,5.82.13,3.89.21,5.83.38v43.33c-2.36.17-4.71.3-7,.38s-4.62.13-6.9.13-4.69-.05-7-.13-4.56-.21-6.84-.38Z"></path><path class="f2fc1666-7a14-4387-ac9a-2527c13a1f94" d="M509.53,502.77V490l-25-34h-6.34c-.17-1.94-.29-3.84-.38-5.7s-.13-3.76-.13-5.7,0-3.84.13-5.7.21-3.76.38-5.7h43.33c.17,1.86.3,3.69.38,5.51s.13,3.66.13,5.51-.05,3.68-.13,5.45-.21,3.59-.38,5.45h-4.43l8.49,15.33,9.12-15.33h-4.31c-.17-1.86-.3-3.68-.38-5.45s-.13-3.59-.13-5.45,0-3.69.13-5.51.21-3.65.38-5.51h41.18c.17,1.94.29,3.84.38,5.7s.12,3.76.12,5.7,0,3.85-.12,5.7-.21,3.76-.38,5.7h-6.34l-25,34v12.79h7.35c.17,2,.29,3.85.38,5.71s.13,3.76.13,5.7,0,3.84-.13,5.7-.21,3.76-.38,5.7H502.18q-.26-2.91-.38-5.7c-.09-1.86-.13-3.76-.13-5.7s0-3.85.13-5.7.21-3.76.38-5.71Z"></path><path class="f2fc1666-7a14-4387-ac9a-2527c13a1f94" d="M607.71,502.77V456h-5.83q-.25-2.91-.37-5.7c-.09-1.85-.13-3.76-.13-5.7s0-3.84.13-5.7.2-3.76.37-5.7h48.53a36.7,36.7,0,0,1,13.43,2.28,28.26,28.26,0,0,1,9.82,6.27,26.4,26.4,0,0,1,6,9.31,32.2,32.2,0,0,1,2,11.53,37.19,37.19,0,0,1-1.58,10.58,26.18,26.18,0,0,1-5.26,9.69,27.21,27.21,0,0,1-9.63,7q-6,2.73-14.82,2.73H636.22v10.13h11.91c.17,2,.29,3.85.38,5.71s.13,3.76.13,5.7,0,3.84-.13,5.7-.21,3.76-.38,5.7H601.88q-.25-2.91-.37-5.7c-.09-1.86-.13-3.76-.13-5.7s0-3.85.13-5.7.2-3.76.37-5.71Zm38.39-32.43a6,6,0,0,0,4.69-2,7.76,7.76,0,0,0,1.77-5.39,7.93,7.93,0,0,0-1.77-5.19,5.78,5.78,0,0,0-4.69-2.16h-9.88v14.7Z"></path><path class="f2fc1666-7a14-4387-ac9a-2527c13a1f94" d="M676.76,502.77l23.57-69.55h39.4l22.55,69.55h6.34q.24,2.93.38,5.71c.08,1.85.12,3.76.12,5.7s0,3.84-.12,5.7-.22,3.76-.38,5.7H724.53c-.17-1.69-.3-3.4-.38-5.13S724,517,724,515.32s0-3.36.13-5,.21-3.31.38-5h5.19l-1.52-6.84H709.45l-1.52,6.84h5.19c.17,1.69.3,3.36.39,5s.12,3.32.12,5,0,3.4-.12,5.13-.22,3.44-.39,5.13h-43.2c-.17-1.94-.29-3.84-.38-5.7s-.13-3.76-.13-5.7.05-3.85.13-5.7.21-3.76.38-5.71Zm48-24.45-5.57-21.92-6,21.92Z"></path><path class="f2fc1666-7a14-4387-ac9a-2527c13a1f94" d="M781,502.77V456H775.2c-.17-1.94-.29-3.84-.38-5.7s-.12-3.76-.12-5.7,0-3.84.12-5.7.21-3.76.38-5.7h50.68a35.57,35.57,0,0,1,13.24,2.34,29.25,29.25,0,0,1,10,6.4,28.76,28.76,0,0,1,6.27,9.44,29.78,29.78,0,0,1,2.22,11.47,30.48,30.48,0,0,1-.64,5.76,35.12,35.12,0,0,1-2,6.59,30.92,30.92,0,0,1-3.74,6.52,24.72,24.72,0,0,1-5.77,5.58l8.37,15.45h8.1q.25,2.93.38,5.71c.09,1.85.13,3.76.13,5.7s0,3.84-.13,5.7-.21,3.76-.38,5.7H831.2l-15.45-33.19h-6.21v10.38h5.7q.25,2.93.38,5.71c.08,1.85.13,3.76.13,5.7s0,3.84-.13,5.7-.21,3.76-.38,5.7h-40c-.17-1.94-.29-3.84-.38-5.7s-.12-3.76-.12-5.7,0-3.85.12-5.7.21-3.76.38-5.71Zm40.16-32.43a7.1,7.1,0,0,0,5.26-2,8.26,8.26,0,0,0,0-10.71,6.68,6.68,0,0,0-5-2H809.54v14.7Z"></path><path class="f2fc1666-7a14-4387-ac9a-2527c13a1f94" d="M874.28,502.77V456h-5.83c-.17-1.94-.29-3.84-.38-5.7s-.12-3.76-.12-5.7,0-3.84.12-5.7.21-3.76.38-5.7h38.14c.17,1.86.29,3.67.38,5.45s.13,3.54.13,5.32-.05,3.57-.13,5.38-.21,3.61-.38,5.39h-3.42v12.67l15-12.67h-3.93c-.17-1.78-.3-3.57-.38-5.39s-.13-3.61-.13-5.38.05-3.55.13-5.32.21-3.59.38-5.45h41.68q.25,2.91.38,5.7c.09,1.86.13,3.76.13,5.7s0,3.85-.13,5.7-.21,3.76-.38,5.7h-7.22l-17.86,15,20,31.8h6.33c.17,2,.29,3.85.38,5.71s.13,3.76.13,5.7,0,3.84-.13,5.7-.21,3.76-.38,5.7H927.75l-20.27-35.09L903.17,494v8.74h5.32c.17,2,.29,3.85.38,5.71s.13,3.76.13,5.7,0,3.84-.13,5.7-.21,3.76-.38,5.7h-40c-.17-1.94-.29-3.84-.38-5.7s-.12-3.76-.12-5.7,0-3.85.12-5.7.21-3.76.38-5.71Z"></path></svg> 